<?xml version="1.0" standalone="no"?>
<!DOCTYPE svg PUBLIC "-//W3C//DTD SVG 20010904//EN"
 "http://www.w3.org/TR/2001/REC-SVG-20010904/DTD/svg10.dtd">
<svg version="1.0" xmlns="http://www.w3.org/2000/svg"
 width="50.000000pt" height="50.000000pt" viewBox="0 0 50.000000 50.000000"
 preserveAspectRatio="xMidYMid meet">

<g transform="translate(0.000000,50.000000) scale(0.100000,-0.100000)"
fill="#000000" stroke="none">
<path d="M252 418 c-7 -7 -13 -41 -13 -77 -1 -54 -3 -60 -8 -31 -4 20 -11 41
-15 48 -10 16 -118 16 -134 0 -17 -17 -17 -259 0 -276 8 -8 49 -12 120 -12
l109 0 6 30 c6 33 8 33 71 21 l42 -8 0 108 c0 90 -3 109 -15 109 -11 0 -15 11
-15 38 0 51 -14 62 -80 62 -31 0 -61 -5 -68 -12z m126 -10 c7 -7 12 -44 12
-98 l0 -85 -70 0 -70 0 0 86 c0 53 5 90 12 97 16 16 100 16 116 0z m-168 -67
c5 -11 10 -55 10 -98 l0 -78 -70 0 -70 0 0 82 c0 111 1 113 66 113 42 0 55 -4
64 -19z m210 -116 c0 -81 -2 -95 -16 -95 -11 0 -14 5 -10 16 3 9 6 51 6 95 0
46 4 79 10 79 6 0 10 -38 10 -95z m-160 -86 c8 -4 24 -11 35 -15 18 -6 18 -8
3 -11 -10 -3 -18 -11 -18 -19 0 -9 -11 -14 -31 -14 -24 0 -30 3 -25 16 3 9 7
52 8 97 l1 82 6 -64 c4 -42 11 -67 21 -72z m114 68 c11 -8 17 -23 14 -38 -3
-21 -9 -24 -54 -27 -40 -2 -53 1 -58 13 -10 27 2 35 50 35 55 0 57 -24 3 -27
l-34 -1 35 8 35 8 -40 -1 c-53 -3 -47 -22 8 -22 35 0 42 3 42 20 0 17 -7 20
-50 20 -43 0 -51 -3 -62 -25 l-13 -25 0 27 c0 15 8 31 18 37 24 15 85 13 106
-2z m-164 -67 c7 -14 8 -26 1 -38 -9 -15 -10 -15 -11 4 0 11 -5 25 -12 32 -17
17 -73 15 -88 -3 -19 -23 6 -47 44 -43 40 4 42 32 4 36 -16 2 -28 -1 -28 -7 0
-5 12 -12 28 -14 20 -4 18 -4 -8 -3 -24 1 -35 6 -35 16 0 11 11 15 40 15 36 0
40 -2 40 -25 0 -22 -5 -25 -38 -28 -42 -4 -67 11 -67 37 0 29 22 41 72 41 37
0 50 -4 58 -20z"/>
<path d="M267 403 c-4 -3 -6 -43 -5 -87 l2 -81 3 75 c2 41 9 80 15 87 11 13
-3 19 -15 6z"/>
<path d="M97 343 c-4 -3 -6 -43 -5 -87 l2 -81 3 75 c2 41 9 80 15 87 11 13 -3
19 -15 6z"/>
</g>
</svg>
