<?xml version="1.0" standalone="no"?>
<!DOCTYPE svg PUBLIC "-//W3C//DTD SVG 20010904//EN"
 "http://www.w3.org/TR/2001/REC-SVG-20010904/DTD/svg10.dtd">
<svg version="1.0" xmlns="http://www.w3.org/2000/svg"
 width="48.000000pt" height="48.000000pt" viewBox="0 0 48.000000 48.000000"
 preserveAspectRatio="xMidYMid meet">

<g transform="translate(0.000000,48.000000) scale(0.100000,-0.100000)"
fill="#000000" stroke="none">
<path d="M41 416 c-7 -8 -11 -27 -9 -43 2 -22 9 -29 30 -31 26 -3 27 -6 30
-65 4 -80 22 -80 26 0 l3 62 102 3 102 3 3 28 c6 48 32 33 32 -18 0 -33 4 -45
15 -45 11 0 15 12 15 44 0 45 -18 76 -45 76 -18 0 -45 -28 -45 -46 0 -11 -23
-14 -120 -14 -100 0 -120 3 -120 15 0 12 19 15 110 15 91 0 110 3 110 15 0 22
-222 22 -239 1z"/>
<path d="M160 285 c0 -12 16 -15 80 -15 64 0 80 3 80 15 0 12 -16 15 -80 15
-64 0 -80 -3 -80 -15z"/>
<path d="M360 180 l0 -100 -109 0 c-121 0 -128 3 -133 63 -4 54 -22 50 -26 -5
-2 -37 1 -51 17 -67 19 -19 33 -21 165 -21 165 0 179 6 174 69 -3 31 -7 36
-30 39 -27 3 -28 5 -28 63 0 46 -3 59 -15 59 -12 0 -15 -18 -15 -100z m60 -76
c0 -31 -23 -28 -28 4 -2 15 2 22 12 22 11 0 16 -9 16 -26z"/>
<path d="M160 215 c0 -12 16 -15 80 -15 64 0 80 3 80 15 0 12 -16 15 -80 15
-64 0 -80 -3 -80 -15z"/>
<path d="M160 145 c0 -12 16 -15 80 -15 64 0 80 3 80 15 0 12 -16 15 -80 15
-64 0 -80 -3 -80 -15z"/>
</g>
</svg>
